# xmcd CD database file
#
# Track frame offsets:
#	150
#	23247
#	43312
#	67082
#	91672
#	120215
#	144920
#	163110
#	189025
#
# Disc length: 2785 seconds
#
# Revision: 0
# Processed by: cddbd v1.5.1PL0 Copyright (c) Steve Scherf et al.
# Submitted via: CDex 1.51
#
DISCID=6c0adf09
DTITLE=Thor Anderson - Be Still My Soul
DYEAR=1998
DGENRE=New Age
TTITLE0=Be Thou My Vision
TTITLE1=Let Us Break Bread
TTITLE2=Waiting For A Rainbow
TTITLE3=Simple Gifts
TTITLE4=Be Still My Soul
TTITLE5=What Wonderous Love
TTITLE6=Take It Easy
TTITLE7=Sweet Hour of Prayer
TTITLE8=Amazing Grace
EXTD=YEAR: 1998
EXTT0=
EXTT1=
EXTT2=
EXTT3=
EXTT4=
EXTT5=
EXTT6=
EXTT7=
EXTT8=
PLAYORDER=
